HIERARCHY
ROOT m_avg_root
{
	OFFSET 0.000000 0.000000 0.000000
	CHANNELS 6 Xposition Yposition Zposition Xrotation Yrotation Zrotation
	JOINT m_avg_Pelvis
	{
		OFFSET -0.002174 0.972724 0.028584
		CHANNELS 6 Xposition Yposition Zposition Xrotation Yrotation Zrotation
		JOINT m_avg_L_Hip
		{
			OFFSET 0.058581 -0.082280 -0.017664
			CHANNELS 6 Xposition Yposition Zposition Xrotation Yrotation Zrotation
			JOINT m_avg_L_Knee
			{
				OFFSET 0.043451 -0.386469 0.008037
				CHANNELS 6 Xposition Yposition Zposition Xrotation Yrotation Zrotation
				JOINT m_avg_L_Ankle
				{
					OFFSET -0.014790 -0.426874 -0.037428
					CHANNELS 6 Xposition Yposition Zposition Xrotation Yrotation Zrotation
					JOINT m_avg_L_Foot
					{
						OFFSET 0.041054 -0.060286 0.122042
						CHANNELS 6 Xposition Yposition Zposition Xrotation Yrotation Zrotation
						End Site
						{
							OFFSET 0.000000 0.142177 0.000000
						}
					}
				}
			}
		}
		JOINT m_avg_R_Hip
		{
			OFFSET -0.060310 -0.090513 -0.013543
			CHANNELS 6 Xposition Yposition Zposition Xrotation Yrotation Zrotation
			JOINT m_avg_R_Knee
			{
				OFFSET -0.043257 -0.383688 -0.004843
				CHANNELS 6 Xposition Yposition Zposition Xrotation Yrotation Zrotation
				JOINT m_avg_R_Ankle
				{
					OFFSET 0.019056 -0.420046 -0.034562
					CHANNELS 6 Xposition Yposition Zposition Xrotation Yrotation Zrotation
					JOINT m_avg_R_Foot
					{
						OFFSET -0.034840 -0.062106 0.130323
						CHANNELS 6 Xposition Yposition Zposition Xrotation Yrotation Zrotation
						End Site
						{
							OFFSET 0.000000 0.148510 0.000000
						}
					}
				}
			}
		}
		JOINT m_avg_Spine1
		{
			OFFSET 0.004439 0.124404 -0.038385
			CHANNELS 6 Xposition Yposition Zposition Xrotation Yrotation Zrotation
			JOINT m_avg_Spine2
			{
				OFFSET 0.004488 0.137956 0.026820
				CHANNELS 6 Xposition Yposition Zposition Xrotation Yrotation Zrotation
				JOINT m_avg_Spine3
				{
					OFFSET -0.002265 0.056032 0.002855
					CHANNELS 6 Xposition Yposition Zposition Xrotation Yrotation Zrotation
					JOINT m_avg_Neck
					{
						OFFSET -0.013390 0.211635 -0.033468
						CHANNELS 6 Xposition Yposition Zposition Xrotation Yrotation Zrotation
						JOINT m_avg_Head
						{
							OFFSET 0.010113 0.088937 0.050410
							CHANNELS 6 Xposition Yposition Zposition Xrotation Yrotation Zrotation
							End Site
							{
								OFFSET 0.000000 0.102729 0.000000
							}
						}
					}
					JOINT m_avg_L_Collar
					{
						OFFSET 0.071702 0.114000 -0.018898
						CHANNELS 6 Xposition Yposition Zposition Xrotation Yrotation Zrotation
						JOINT m_avg_L_Shoulder
						{
							OFFSET 0.122921 0.045205 -0.019046
							CHANNELS 6 Xposition Yposition Zposition Xrotation Yrotation Zrotation
							JOINT m_avg_L_Elbow
							{
								OFFSET 0.255332 -0.015649 -0.022946
								CHANNELS 6 Xposition Yposition Zposition Xrotation Yrotation Zrotation
								JOINT m_avg_L_Wrist
								{
									OFFSET 0.265709 0.012698 -0.007375
									CHANNELS 6 Xposition Yposition Zposition Xrotation Yrotation Zrotation
									JOINT m_avg_L_Hand
									{
										OFFSET 0.086691 -0.010636 -0.015594
										CHANNELS 6 Xposition Yposition Zposition Xrotation Yrotation Zrotation
										End Site
										{
											OFFSET 0.000000 0.088722 0.000000
										}
									}
								}
							}
						}
					}
					JOINT m_avg_R_Collar
					{
						OFFSET -0.082954 0.112472 -0.023707
						CHANNELS 6 Xposition Yposition Zposition Xrotation Yrotation Zrotation
						JOINT m_avg_R_Shoulder
						{
							OFFSET -0.113228 0.046853 -0.008472
							CHANNELS 6 Xposition Yposition Zposition Xrotation Yrotation Zrotation
							JOINT m_avg_R_Elbow
							{
								OFFSET -0.260127 -0.014369 -0.031269
								CHANNELS 6 Xposition Yposition Zposition Xrotation Yrotation Zrotation
								JOINT m_avg_R_Wrist
								{
									OFFSET -0.269108 0.006794 -0.006027
									CHANNELS 6 Xposition Yposition Zposition Xrotation Yrotation Zrotation
									JOINT m_avg_R_Hand
									{
										OFFSET -0.088754 -0.008652 -0.010107
										CHANNELS 6 Xposition Yposition Zposition Xrotation Yrotation Zrotation
										End Site
										{
											OFFSET 0.000000 0.089745 0.000000
										}
									}
								}
							}
						}
					}
				}
			}
		}
	}
}
MOTION
Frames: 4
Frame Time: 0.041667
0.091534 -0.059522 2.838279 -0.000000 0.000000 -0.000000 0.089360 0.913201 2.866863 -166.079451 -1.150765 4.250213 0.058581 -0.082280 -0.017664 -42.539241 -12.785914 14.621627 0.043451 -0.386470 0.008036 36.029856 -13.606005 -3.370128 -0.014791 -0.426875 -0.037428 1.488855 4.406500 -19.532990 0.041054 -0.060286 0.122042 -14.158113 -1.865160 27.083705 -0.060310 -0.090513 -0.013543 -38.562985 11.297464 -16.080758 -0.043257 -0.383688 -0.004842 37.193040 18.848032 5.044322 0.019055 -0.420046 -0.034562 -1.815483 -3.551565 17.083813 -0.034840 -0.062106 0.130324 -10.668779 3.623095 -23.543391 0.004439 0.124403 -0.038386 26.138929 -0.945060 2.113537 0.004488 0.137957 0.026820 -1.955190 -1.685317 -1.106430 -0.002265 0.056033 0.002855 2.510016 1.059633 -6.271804 -0.013390 0.211635 -0.033468 -16.761223 2.402699 -4.006072 0.010113 0.088937 0.050410 -7.176154 1.502461 -0.572050 0.071702 0.113999 -0.018899 -3.659060 -3.514684 0.745805 0.122921 0.045206 -0.019046 0.260222 -11.362359 -23.726544 0.255332 -0.015649 -0.022947 45.653906 -70.968384 55.412365 0.265709 0.012698 -0.007375 -3.109886 -6.685630 8.524034 0.086691 -0.010636 -0.015594 -9.007782 -2.524773 -10.356374 -0.082954 0.112472 -0.023708 -5.513522 2.942405 -2.191168 -0.113228 0.046854 -0.008472 -1.505022 14.857693 23.059779 -0.260127 -0.014369 -0.031270 21.742350 67.811293 -28.001406 -0.269108 0.006794 -0.006027 -2.818491 6.499558 -6.215179 -0.088754 -0.008651 -0.010107 -7.614421 3.653274 10.052674 
0.098407 -0.053296 2.845492 -0.000000 0.000000 -0.000000 0.096233 0.919428 2.874076 -164.605469 -1.680424 2.803861 0.058581 -0.082280 -0.017664 -43.320830 -13.117124 15.988544 0.043451 -0.386470 0.008037 35.450768 -13.457565 -2.822767 -0.014790 -0.426874 -0.037428 0.782582 5.686623 -19.394829 0.041054 -0.060286 0.122043 -14.344622 -1.703372 27.429628 -0.060310 -0.090514 -0.013542 -39.463248 10.864464 -15.306847 -0.043257 -0.383688 -0.004843 35.237649 18.969460 6.183183 0.019056 -0.420045 -0.034562 -1.013978 -3.355763 17.370850 -0.034840 -0.062106 0.130323 -10.294789 3.717200 -23.584630 0.004439 0.124403 -0.038384 26.304281 -1.072530 1.603176 0.004488 0.137956 0.026821 -2.136988 -1.848524 -0.928698 -0.002265 0.056033 0.002855 1.600219 -0.391003 -2.986955 -0.013390 0.211636 -0.033468 -18.195385 3.824322 -4.667918 0.010113 0.088938 0.050410 -8.239820 1.476264 0.201519 0.071702 0.114000 -0.018898 -3.946176 -3.734358 1.461416 0.122921 0.045206 -0.019046 0.981136 -14.088724 -20.948508 0.255332 -0.015649 -0.022947 63.231289 -73.659424 72.269398 0.265709 0.012698 -0.007375 -2.914684 -6.832144 8.356552 0.086691 -0.010636 -0.015594 -9.136993 -2.242782 -10.256297 -0.082954 0.112473 -0.023708 -5.444201 2.161235 -1.672121 -0.113228 0.046854 -0.008472 -1.531816 10.166158 23.497157 -0.260127 -0.014369 -0.031269 18.537671 64.848070 -26.042598 -0.269108 0.006794 -0.006027 -2.709112 6.689707 -5.955858 -0.088753 -0.008652 -0.010107 -7.626838 3.646210 9.951872 
0.102660 -0.043361 2.851186 -0.000000 0.000000 -0.000000 0.100487 0.929363 2.879770 -163.114507 -2.076816 1.408892 0.058581 -0.082280 -0.017664 -44.091712 -13.383563 17.496691 0.043451 -0.386470 0.008037 34.931435 -13.297189 -2.356638 -0.014790 -0.426875 -0.037429 0.206198 6.759931 -19.275482 0.041054 -0.060286 0.122041 -14.476045 -1.578628 27.700037 -0.060310 -0.090513 -0.013543 -40.010524 10.304480 -14.610804 -0.043257 -0.383688 -0.004843 33.393847 19.075434 7.377683 0.019055 -0.420045 -0.034561 -0.355999 -3.139685 17.606226 -0.034840 -0.062106 0.130323 -9.962716 3.799834 -23.600459 0.004439 0.124404 -0.038386 26.494765 -1.147866 1.104673 0.004488 0.137957 0.026820 -2.275534 -1.962600 -0.721525 -0.002265 0.056031 0.002855 0.900461 -1.364031 0.001787 -0.013390 0.211635 -0.033468 -19.196409 4.969190 -5.175549 0.010113 0.088937 0.050410 -9.078898 1.417883 0.873871 0.071702 0.113999 -0.018898 -4.265912 -3.794136 2.152859 0.122921 0.045205 -0.019046 1.379862 -15.557940 -18.211205 0.255332 -0.015649 -0.022946 77.760092 -74.553714 86.688536 0.265709 0.012698 -0.007375 -2.713682 -6.935818 8.258897 0.086691 -0.010636 -0.015594 -9.260159 -2.020370 -10.203604 -0.082954 0.112472 -0.023707 -5.394814 1.382854 -1.177062 -0.113228 0.046853 -0.008472 -1.728917 6.110681 23.813755 -0.260128 -0.014370 -0.031270 17.285332 63.208223 -26.352470 -0.269109 0.006794 -0.006027 -2.659289 6.881526 -5.751911 -0.088754 -0.008652 -0.010107 -7.632812 3.630845 9.912137 
0.105154 -0.035053 2.855180 -0.000000 0.000000 -0.000000 0.102980 0.937670 2.883763 -161.773331 -2.363503 0.191941 0.058581 -0.082280 -0.017663 -44.815484 -13.513666 18.974653 0.043451 -0.386469 0.008037 34.462406 -13.136184 -1.993767 -0.014790 -0.426874 -0.037428 -0.213051 7.587369 -19.195885 0.041054 -0.060286 0.122042 -14.545405 -1.477151 27.888330 -0.060310 -0.090514 -0.013541 -40.359813 9.736571 -13.993227 -0.043257 -0.383688 -0.004843 31.630579 19.090862 8.388648 0.019055 -0.420045 -0.034561 0.198234 -2.974751 17.766340 -0.034840 -0.062106 0.130323 -9.690170 3.852737 -23.579012 0.004439 0.124403 -0.038384 26.646448 -1.207674 0.632803 0.004488 0.137956 0.026820 -2.398399 -2.057841 -0.564685 -0.002265 0.056032 0.002855 0.260383 -2.006318 2.068035 -0.013390 0.211636 -0.033468 -20.158595 5.676052 -5.186520 0.010113 0.088937 0.050410 -9.846483 1.353967 1.493607 0.071702 0.113999 -0.018899 -4.569482 -3.643746 2.662129 0.122921 0.045205 -0.019046 1.407287 -15.261803 -16.209738 0.255332 -0.015649 -0.022946 81.807655 -74.858648 91.141341 0.265709 0.012698 -0.007375 -2.512170 -6.978912 8.241211 0.086691 -0.010636 -0.015594 -9.376683 -1.888916 -10.202084 -0.082954 0.112472 -0.023708 -5.345879 0.639873 -0.777929 -0.113228 0.046853 -0.008472 -1.874461 3.045287 23.962870 -0.260127 -0.014369 -0.031269 18.271820 63.486199 -28.927794 -0.269109 0.006794 -0.006027 -2.678612 7.071049 -5.618966 -0.088753 -0.008652 -0.010107 -7.622944 3.597541 9.922355 
